IKResults EF2
version=1
nRows=22
nColumns=24
inDegrees=yes

Units are S.I. units (second, meters, Newtons, ...)
If the header above contains a line with 'inDegrees', this indicates whether rotational values are in degrees (yes) or radians (no).

endheader
time	pelvis_tilt	pelvis_list	pelvis_rotation	pelvis_tx	pelvis_ty	pelvis_tz	hip_flexion_r	hip_adduction_r	hip_rotation_r	knee_angle_r	ankle_angle_r	subtalar_angle_r	mtp_angle_r	hip_flexion_l	hip_adduction_l	hip_rotation_l	knee_angle_l	ankle_angle_l	subtalar_angle_l	mtp_angle_l	lumbar_extension	lumbar_bending	lumbar_rotation
      2.82000000	      2.84547968	     -1.37763926	    -82.43312352	     -0.22704463	      0.96838553	     -4.85404765	     33.22146774	     -5.94438660	     -5.36466500	    -39.67486451	      6.17508182	    -10.93480142	      0.00000000	     -4.60584158	      8.22814066	     10.40753069	    -15.23718201	     17.76958905	     -9.88099055	      0.00000000	    -17.94283127	     -2.65766742	     -1.80431388
      2.83000000	      2.86352867	     -1.28957735	    -82.14322663	     -0.22664217	      0.96651988	     -4.84126117	     33.48966248	     -5.87131054	     -4.98747806	    -36.50415475	      5.55494174	    -10.74066232	      0.00000000	     -5.55265952	      8.08821256	     10.65737434	    -14.95478554	     18.42788565	    -10.08540514	      0.00000000	    -17.74997963	     -2.57533087	     -2.02532029
      2.84000000	      2.91557263	     -1.14136612	    -81.92083956	     -0.22640206	      0.96437476	     -4.82847070	     33.76945347	     -5.78702270	     -4.41031425	    -33.34947834	      5.56314449	    -10.74678168	      0.00000000	     -6.37645120	      7.99766691	     10.86529757	    -14.77596770	     18.48744676	    -10.08044811	      0.00000000	    -17.67675476	     -2.61633243	     -2.05926956
      2.85000000	      2.91963818	     -1.01795453	    -81.63021324	     -0.22583747	      0.96226208	     -4.81559783	     33.91159504	     -5.72292172	     -3.85388685	    -30.20321782	      5.87412776	    -11.05055719	      0.00000000	     -7.05972730	      7.88503058	     11.24380497	    -14.94175477	     19.50482895	    -10.08849406	      0.00000000	    -17.53665707	     -2.48463197	     -2.59006541
      2.86000000	      2.86307894	     -0.85676531	    -81.27565922	     -0.22552434	      0.96001865	     -4.80228949	     33.94497848	     -5.60173743	     -3.25177423	    -27.03066868	      6.47224288	    -11.57208731	      0.00000000	     -7.88302231	      7.59887792	     11.15440530	    -14.72505874	     20.09525146	     -9.49755730	      0.00000000	    -17.40223371	     -2.35148290	     -3.06343131
      2.87000000	      2.90656796	     -0.66052501	    -81.02728259	     -0.22521794	      0.95759117	     -4.78960434	     34.09085436	     -5.59629614	     -2.54289417	    -24.11519874	      6.51928876	    -11.58807630	      0.00000000	     -8.50284494	      7.54098333	     11.34388471	    -14.82091245	     20.14999578	     -9.48339895	      0.00000000	    -17.29499448	     -2.33671311	     -3.08200270
      2.88000000	      2.91217438	     -0.42710189	    -80.76409222	     -0.22487494	      0.95494515	     -4.77670559	     34.22852001	     -5.57947887	     -1.80757390	    -21.36568456	      7.59187549	    -12.26347019	      0.00000000	     -8.91555866	      7.48289391	     11.58312865	    -15.27709043	     21.16424573	     -9.49284816	      0.00000000	    -17.02268450	     -2.24209805	     -3.49885841
      2.89000000	      2.87148409	     -0.15630788	    -80.50293920	     -0.22487041	      0.95231960	     -4.76364063	     34.38824666	     -5.50670481	     -1.01889103	    -18.83177669	      8.22950751	    -12.89119458	      0.00000000	     -9.44070495	      7.28851893	     11.35119088	    -15.35979957	     21.57014626	     -8.47070734	      0.00000000	    -16.80713118	     -2.14700700	     -3.88884954
      2.90000000	      2.77200104	      0.11335427	    -80.20308153	     -0.22460866	      0.94963857	     -4.75055429	     34.54918370	     -5.45371511	     -0.41176146	    -16.57540232	      8.55939382	    -13.45581290	      0.00000000	     -9.72795873	      7.00260058	     10.83632834	    -15.89795958	     22.61162566	     -7.06863017	      0.00000000	    -16.50751848	     -1.95634867	     -4.01474810
      2.91000000	      2.67162793	      0.38299396	    -79.87605489	     -0.22444713	      0.94714320	     -4.73730044	     34.68339179	     -5.43647201	      0.03853199	    -14.63279501	      8.60661142	    -13.48782368	      0.00000000	    -10.01405835	      6.77522793	     10.82676227	    -16.43631200	     22.66933904	     -7.01324359	      0.00000000	    -16.30584902	     -1.64586424	     -4.09465967
      2.92000000	      2.51709588	      0.65246996	    -79.51927997	     -0.22433368	      0.94473044	     -4.72379607	     34.78667630	     -5.38941093	      0.34761910	    -13.03941168	      8.80305425	    -13.61330977	      0.00000000	    -10.25083219	      6.47187228	     10.83484989	    -17.05612149	     22.81080255	     -6.94391162	      0.00000000	    -16.00527888	     -1.30155715	     -4.27898381
      2.93000000	      2.36829626	      0.86350255	    -79.09269393	     -0.22411294	      0.94243255	     -4.71004930	     34.77889131	     -5.38125538	      0.52920592	    -11.82120786	      9.78827612	    -14.31767668	      0.00000000	    -10.49292811	      6.16073580	     10.97205524	    -17.83333728	     23.31273183	     -6.65465868	      0.00000000	    -15.79544287	     -1.05058771	     -5.09757925
      2.94000000	      2.22229765	      1.08852549	    -78.77953449	     -0.22419387	      0.94009661	     -4.69588194	     34.81062284	     -5.31696438	      0.68398375	    -11.11264724	     10.13708457	    -14.62107622	      0.00000000	    -10.72219385	      5.84227273	     10.95202988	    -18.66980419	     23.49691285	     -6.29810763	      0.00000000	    -15.41189313	     -0.79085090	     -5.41396070
      2.95000000	      2.11794410	      1.24899933	    -78.32862226	     -0.22384153	      0.93794942	     -4.68164325	     34.73532708	     -5.37235562	      0.63729934	    -10.86749773	     10.20567406	    -14.67521059	      0.00000000	    -10.97694504	      5.55336561	     11.20911646	    -19.51951863	     23.50019008	     -6.25024559	      0.00000000	    -15.23363100	     -0.45226119	     -5.51688621
      2.96000000	      2.01021948	      1.34395265	    -77.94244311	     -0.22366907	      0.93586643	     -4.66697478	     34.58447095	     -5.35140606	      0.68077736	    -11.10532174	     10.32697541	    -14.71819416	      0.00000000	    -11.30886769	      5.20451628	     11.29828294	    -20.38489703	     23.46354097	     -6.16384252	      0.00000000	    -14.98134265	     -0.09965541	     -5.70742936
      2.97000000	      1.92643735	      1.41113545	    -77.65791139	     -0.22371370	      0.93381933	     -4.65192063	     34.41143614	     -5.27206395	      0.75590476	    -11.82946661	     10.76900191	    -14.47753764	      0.00000000	    -11.67899900	      4.87405201	     11.33841648	    -21.25596647	     23.03363587	     -5.57218358	      0.00000000	    -14.78464886	      0.06958249	     -6.37715772
      2.98000000	      1.85149491	      1.42831451	    -77.31931675	     -0.22345863	      0.93202257	     -4.63666205	     34.12085132	     -5.21315722	      0.75596987	    -12.91240764	     10.88919207	    -14.37588477	      0.00000000	    -12.07592863	      4.55775399	     11.49431584	    -22.15602244	     22.94168286	     -5.51103021	      0.00000000	    -14.63967465	      0.43035717	     -6.45108179
      2.99000000	      1.71603888	      1.46549099	    -77.16777286	     -0.22369033	      0.93018111	     -4.62077500	     33.80589856	     -4.93377971	      0.96255691	    -14.22966613	     11.06347636	    -14.27932411	      0.00000000	    -12.42837337	      4.17908991	     11.42969168	    -23.10983924	     22.65115719	     -5.36055483	      0.00000000	    -14.36213693	      0.76534073	     -6.52113360
      3.00000000	      1.51183415	      1.53159476	    -77.02949903	     -0.22392353	      0.92876388	     -4.60496640	     33.51134246	     -4.55646616	      0.86834039	    -15.26551909	     11.36292968	    -14.33244659	      0.00000000	    -12.62988676	      3.76021912	     11.30246150	    -24.17347524	     21.37714787	     -5.48386582	      0.00000000	    -14.08923584	      1.05052749	     -6.67063811
      3.01000000	      1.15476765	      1.71531166	    -77.00134734	     -0.22438748	      0.92773126	     -4.58924220	     33.39319863	     -4.03090212	      0.66707970	    -15.11688635	      8.57643622	    -16.42272963	      0.00000000	    -12.53045374	      3.23525569	     11.06696983	    -25.39845707	     20.18980626	     -6.09188667	      0.00000000	    -13.71297153	      1.57672942	     -6.41717282
      3.02000000	      0.75172671	      2.00424330	    -77.04905382	     -0.22496626	      0.92696674	     -4.57347077	     33.17582700	     -3.41528091	      0.85406315	    -14.34383556	      4.52065126	    -19.64494686	      0.00000000	    -12.17790507	      2.70705152	     10.75562208	    -26.75985948	     18.61061712	     -5.85314480	      0.00000000	    -13.14907013	      2.11774272	     -6.17817825
      3.03000000	      0.28479105	      2.32559450	    -77.24425969	     -0.22575879	      0.92665087	     -4.55747213	     32.75792683	     -2.69227791	      1.20490985	    -14.14568641	      3.08714109	    -19.63692901	      0.00000000	    -11.66963348	      2.15833264	     10.22410803	    -28.24672373	     16.90814536	     -5.25651249	      0.00000000	    -12.44610731	      2.63753487	     -5.75451216
